<?xml version="1.0" encoding="UTF-8" standalone="no"?>
<svg id="b3" viewBox="0 0 83.399 89.466" width="100" height="100" xmlns="http://www.w3.org/2000/svg">
  <g id="layer1" transform="translate(-571.36 -212.65)" style="fill:#000000">
    <path
        d="m613.06 264.16c-6.02 0-10.71-0.25-14.07-0.77 0.6 1.2 0.9 2.24 0.9 3.1 0 1.29-0.25 2.36-0.77 3.22 2.49-0.77 7.14-1.16 13.94-1.16s11.45 0.39 13.94 1.16c-0.51-0.86-0.77-1.93-0.77-3.22 0-1.04 0.26-2.07 0.77-3.1-4.04 0.52-8.69 0.77-13.94 0.77m0-46.73c-1.81 0-3.05 0.82-3.74 2.45-0.17 0.43-0.26 0.86-0.26 1.29 0 1.9 0.95 3.14 2.84 3.75 0.34 0.08 0.73 0.13 1.16 0.13 1.98 0 3.27-0.91 3.87-2.71 0.09-0.35 0.13-0.74 0.13-1.17 0-1.72-0.86-2.88-2.58-3.48-0.51-0.17-0.99-0.26-1.42-0.26m0 54.87c-3.27 0-7.49 0.3-12.65 0.9-1.46 0.17-2.32 0.99-2.58 2.45 0 1.04 2.36 1.68 7.1 1.94-0.43-0.09-0.26-0.13 0.51-0.13h7.62c10.07 0 15.11-0.6 15.11-1.81 0-1.98-2.5-3.05-7.49-3.22h-3.75c-1.11 0-2.06-0.05-2.84-0.13h-1.03m-0.13-11.88c9.64 0 15.54-0.9 17.69-2.71 1.46-1.12 2.54-4.09 3.23-8.91-0.43-4.3-3.23-8.43-8.39-12.39-4.82-3.79-9.04-5.9-12.66-6.33-3.35 0.43-7.44 2.54-12.26 6.33-5.08 3.96-7.83 8.09-8.26 12.39 0.6 4.48 1.55 7.32 2.84 8.52 0.34 0.35 0.73 0.65 1.16 0.9 2.15 1.47 7.7 2.2 16.65 2.2m-2.19-6.33v-5.68h-4.39v-5.03h4.39v-5.55h4.65v5.55h4.38v5.03h-4.38v5.68h-4.65m2.06 26.34c-0.77 0-3.05 1.51-6.84 4.52-2.67 1.81-6.97 2.88-12.91 3.23-4.3 0-7.74 0.21-10.33 0.64-2.75 0.6-4.13 1.77-4.13 3.49 0.26 1.72 1.16 2.58 2.71 2.58l6.85-1.03c4.47 0 9.16-0.61 14.07-1.81 5.59-1.46 9.21-3.79 10.84-6.97 2.33 4.56 8.35 7.31 18.08 8.26 0 0 1.11 0.17 3.35 0.52h3.36l6.97 1.03c1.55 0 2.45-0.86 2.71-2.58 0-1.72-1.38-2.89-4.13-3.49l-13.81-1.03c-4.39-0.35-8.61-2.07-12.66-5.17-1.8-1.46-3.18-2.19-4.13-2.19m0.26 11.23c-3.35 3.36-8.43 5.42-15.23 6.2-2.76 0.26-7.58 0.86-14.46 1.81-1.81 0.34-2.84 1.16-3.1 2.45-1.63-0.43-4.04-3.1-7.23-8.01-0.77-1.2-1.33-2.02-1.68-2.45 2.84-5.42 6.37-8.13 10.59-8.13l7.62 0.39c3.52 0 7.66-0.82 12.39-2.46-6.11-0.77-9.17-2.62-9.17-5.55l2.59-9.81v-0.26c-5.17-5.68-7.75-11.01-7.75-16.01 0-5.68 2.8-10.84 8.39-15.49 4.91-4.13 8.52-6.32 10.84-6.58-1.89-2.33-2.84-4.74-2.84-7.23 0-3.96 1.98-6.46 5.94-7.49 0.95-0.26 1.98-0.39 3.1-0.39 4.22 0 6.97 1.59 8.26 4.78l0.65 2.71v0.39c0 2.67-0.9 5.08-2.71 7.23 2.32 0.26 5.98 2.49 10.97 6.71 5.51 4.56 8.26 9.68 8.26 15.36 0 4.82-2.58 10.16-7.74 16.01 0 1.21 0.43 2.93 1.29 5.17 0.86 2.75 1.29 4.39 1.29 4.9 0 2.93-3.06 4.78-9.17 5.55 4.65 1.64 8.78 2.46 12.4 2.46l7.61-0.39c4.22 0 7.75 2.71 10.59 8.13l-4.39 6.72c-1.46 1.89-2.97 3.14-4.52 3.74-0.34-1.72-2.84-2.8-7.48-3.23 0.6 0-0.69-0.13-3.88-0.39-10.76-1.03-17.9-3.31-21.43-6.84"
    />
  </g>
</svg>
