<?xml version="1.0" encoding="UTF-8" standalone="no"?>
<svg id="w1" viewBox="0 0 55.384 75.911" width="100" height="100" xmlns="http://www.w3.org/2000/svg">
  <g id="layer1" transform="translate(-921.42 -223.24)" style="fill:#000000">
    <path
        d="m972.16 293.99c0-9.04-2.45-15.8-7.36-20.27-1.63-1.55-3.66-3.02-6.07-4.39-3.35-1.98-5.03-3.79-5.03-5.42 0-0.87 0.86-1.81 2.58-2.84 2.67-1.47 4.26-3.19 4.78-5.17 0.17-0.77 0.26-1.72 0.26-2.84 0-3.96-2.03-7.06-6.07-9.29l-2.32-1.68c-0.44-0.43-0.65-0.91-0.65-1.42 0-1.47 0.52-2.93 1.55-4.39 0.69-0.95 1.03-2.07 1.03-3.36 0-2.24-1.2-3.87-3.61-4.9-0.78-0.26-1.55-0.39-2.33-0.39-2.41 0-4.13 1.07-5.16 3.23-0.35 0.68-0.52 1.37-0.52 2.06 0 0.78 0.56 2.24 1.68 4.39 0.69 1.21 0.99 2.32 0.9 3.36 0 1.03-0.99 2.06-2.96 3.1-3.96 2.32-5.94 5.42-5.94 9.29 0 3.36 1.68 6.03 5.03 8.01 1.64 1.11 2.45 2.06 2.45 2.84 0 1.63-1.67 3.44-5.03 5.42-6.2 3.78-10.16 8.39-11.88 13.81-0.94 3.01-1.42 6.63-1.42 10.85h46.09m-50.61 5.16c-0.08-1.03-0.13-3.01-0.13-5.94 0-10.59 3.1-18.5 9.3-23.75 2.07-1.72 4.69-3.4 7.88-5.04-3.28-1.03-5.47-3.53-6.59-7.49-0.43-1.29-0.64-2.62-0.64-4 0-5.76 2.92-9.9 8.77-12.39-1.37-2.5-2.06-4.95-2.06-7.36 0-3.96 1.94-6.89 5.81-8.78 1.63-0.77 3.4-1.16 5.29-1.16 4.39 0 7.62 1.68 9.68 5.03 0.95 1.47 1.42 3.1 1.42 4.91 0 2.32-0.77 4.78-2.32 7.36 5.94 2.41 8.91 6.54 8.91 12.39 0 4.56-1.68 8.01-5.04 10.33-0.69 0.52-1.46 0.9-2.32 1.16 7.75 3.96 12.78 9 15.1 15.11 1.47 3.78 2.2 8.34 2.2 13.68 0 2.84-0.04 4.82-0.13 5.94h-55.13"
    />
  </g>
</svg>
