<?xml version="1.0" encoding="UTF-8" standalone="no"?>
<svg id="w4" viewBox="0 0 64.808 75.782" width="100" height="100" xmlns="http://www.w3.org/2000/svg">
  <g id="layer1" transform="translate(-412.73 -223.37)" style="fill:#000000">
    <path
        d="m430.41 249.06v22.85h29.44v-22.85h-29.44m-15.23 50.09l-2.45-2.45v-8.91l13.17-13.3v-25.82l-11.37-9.94v-11.75l3.75-3.61h11.62l2.19 2.19v3.36h3.75v-3.36l2.19-2.19h14.2l2.2 2.19v3.36h3.61v-3.36l2.32-2.19h11.62l3.75 3.61v11.75l-11.36 9.94v25.82l13.16 13.3v8.91l-2.45 2.45h-59.9m2.07-10.2v5.04h55.77v-5.04h-55.77m12.65-12.78l-8.52 8.26h47.51l-8.53-8.26h-30.46m10.33-47.38v3.36l-1.94 1.8h-8.39l-1.94-1.8v-3.62h-7.23l-1.68 1.81v7.23l8.78 7.1h34.6l8.78-7.1v-7.23l-1.68-1.81h-7.23v3.62l-1.94 1.8h-8.39l-1.93-1.8v-3.36h-9.81"
    />
  </g>
</svg>
